<svg xmlns="http://www.w3.org/2000/svg" xmlns:xlink="http://www.w3.org/1999/xlink" width="416.703" height="26.625" viewBox="0 0 416.703 26.625">
  <defs>
    <radialGradient id="radial-gradient" cx="0.5" cy="0.5" r="0.765" gradientTransform="translate(0 0)" gradientUnits="objectBoundingBox">
      <stop offset="0" stop-color="#d586ff"/>
      <stop offset="1" stop-color="#eac2ff"/>
    </radialGradient>
  </defs>
  <path id="Path_26" data-name="Path 26" d="M21.985,1.852l.092.122-.153.168a32.933,32.933,0,0,0-4.5,5.767q-.687,1.114-.976,1.587l-5.676,9.078v6.195L12.983,26.8H5.553l2.2-2.029V18.574l-3.662-5.63-.793-1.266A20.69,20.69,0,0,0,1.517,9.206,16.453,16.453,0,0,0-.535,7.36L-.7,7.222H7L5.11,9.191l5.081,7.659.488-.778L6.148,9.191l1.6-1.526.32.244L6.682,9.191l4.226,6.515,3.418-5.386a7.784,7.784,0,0,0,1.48-3.509,3.41,3.41,0,0,0-1.3-2.228A29.592,29.592,0,0,0,21.8,1.943Zm.687.915v.626l-.153.153a20.338,20.338,0,0,0-2.2,2.441q-.923,1.221-2.739,4.1l-5.523,8.7v5.981l2.716,3.28H5.217l-.183-.412H13.96L11.64,24.769V18.681L17.27,9.8l.885-1.4A25.18,25.18,0,0,1,22.672,2.767Zm12.16,4.455-1.587,1.8,2.5,6.652.61-.336L34.1,9.328l1.617-1.861.4.168L34.573,9.419l2.136,5.691q.183-.137.214-.168l.5-.427a4.394,4.394,0,0,0,.58-.519,10.576,10.576,0,0,0,1.221,3.113q-.442-.031-.641-.031a3.838,3.838,0,0,0-2.121.458l2.762,7.492,2.289,1.77H33.81l2.106-1.77-1.694-4.455a16.9,16.9,0,0,0-2.579,3.219l-.351-.092a19.428,19.428,0,0,1,2.685-3.341l.122-.153-.29-.671A13.565,13.565,0,0,0,30.8,23.045l-.275-.442q-.793-1.266-2.029-2.884l-.153-.183a11,11,0,0,0-1.175,4.242A3.643,3.643,0,0,0,27.5,25.4a14.989,14.989,0,0,0,1.579,2.22l.336.427H21.176l-.305-.412h7.766l-.259-.32a9.943,9.943,0,0,1-1.32-1.9,3.779,3.779,0,0,1-.313-1.594,13.713,13.713,0,0,1,1.266-4.638l-.671-.7q-.2.488-.5,1.434l-.5,1.556a6.918,6.918,0,0,0-.412,2.075,3.091,3.091,0,0,0,.29,1.419,7.607,7.607,0,0,0,1.221,1.541q.092.092.275.29H20.078a9.083,9.083,0,0,0,3.456-3.036,24.051,24.051,0,0,0,2.525-5.889l.061-.214a4.183,4.183,0,0,0-2.334-.839,10.955,10.955,0,0,0,1.3-2.609q.214.2.259.244l.687.641a7.809,7.809,0,0,0,.839.687l.275-.671-.183-.153q-.763-.671-1.282-1.083l-.137-.107.244-.336a11.677,11.677,0,0,1,1.556,1.236l2.075-5.706L27.8,7.222Zm-3.769,4.9-1.678,4.425a1.584,1.584,0,0,1,.153.183l.626.7a15.231,15.231,0,0,1,1.282,1.709l.153.229a13.593,13.593,0,0,1,1.556-1.633Zm-.687-1.77-2.426,6.408a21.213,21.213,0,0,1,2,2.35l.7.976q.015.015.153.2a1.22,1.22,0,0,0,.153-.168l.214-.259q.046-.061.168-.2a15.9,15.9,0,0,0-2.487-2.975L30.8,11.525Zm8.972,4.379A16.5,16.5,0,0,0,41.027,18.5q-.336-.046-.381-.046l-1.236-.107q-.839-.076-1.221-.076-.061,0-.305.015l2.548,6.759,3.4,3.006H35l-.29-.412h8.1l-2.746-2.426L37.35,18.025a4.667,4.667,0,0,1,1.19-.137,13.655,13.655,0,0,1,1.831.137l-.183-.336a13.242,13.242,0,0,1-1.312-3.25Zm5.462-7.507h6.012q4.409,0,6.53,1.694,3.158,2.5,3.158,7.842,0,5.539-2.762,8.01a7.27,7.27,0,0,1-2.8,1.572,14.961,14.961,0,0,1-4.112.458H44.353l2.09-1.6V8.977ZM49.434,8.5V25.623h.839V9.511a9.6,9.6,0,0,1,1.449-.122,6.218,6.218,0,0,1,1.976.252,4.271,4.271,0,0,1,1.457.923A8.017,8.017,0,0,0,51.692,9.8q-.4,0-1.038.061V25.623a9.044,9.044,0,0,0,2.594-.282,4.129,4.129,0,0,0,1.678-1.091q2.212-2.243,2.212-7.537,0-5.172-2.4-7.064A7.414,7.414,0,0,0,50.151,8.5ZM45.3,28.049l-.229-.412h5.584a13.575,13.575,0,0,0,6.256-1.144Q61.5,24.052,61.5,17.048q0-4.684-2.06-6.958l-.61-.671q-.031-.031-.183-.214,3.235,2.029,3.235,7.766,0,6.027-3.2,8.88-2.456,2.2-8.026,2.2ZM63.593,7.222h7.171L68.689,9.252v6.591a7.809,7.809,0,0,0,.824.092V9.4l1.663-1.648.305.275L69.91,9.587V15.95l.5.046q1.175.107,2.273.107a21.024,21.024,0,0,0,2.731-.153V8.931L73.556,7.222h7.049L78.5,9.252v15.9L80.346,26.8H73.327l2.09-1.785V18.544a11.357,11.357,0,0,1-2.64.305q-1.282,0-2.655-.137L69.91,18.7V25.15l2.518,2.9H64.539l-.4-.412h7.446l-2.075-2.273V18.345l.442.031q2.014.153,2.914.153a7.407,7.407,0,0,0,2.548-.4v-.549a22.957,22.957,0,0,1-3.341.214q-1.022,0-1.5-.046l-1.541-.137q-.092-.015-.351-.031V25.15L70.642,26.8H63.593l2.045-1.785V18.345a2.435,2.435,0,0,0-2.045,1.007l-.32-.153a3.227,3.227,0,0,1,2.365-1.236V17.4a3.218,3.218,0,0,0-2.7,1.3l-.229-.153a3.907,3.907,0,0,1,2.929-2.594V9.084Zm17.653.854L79.69,9.587V25.15l2.533,2.9H74.3l-.381-.412h7.431l-2.045-2.3V9.435L81,7.756Zm19.118-.854L97.633,9.4v9.856a30.21,30.21,0,0,1-.175,3.906,4.641,4.641,0,0,1-.694,1.953q-1.312,1.953-5.1,1.953-4,0-5.584-1.953-1.266-1.541-1.266-5.9V9.084L82.741,7.222h7.2L87.868,9.252V19.23l.031,2.35a4.49,4.49,0,0,0,.946,3.227,4.386,4.386,0,0,0,3.189.954,3.731,3.731,0,0,0,3.4-1.449q.748-1.175.748-5.035L96.244,9.4l-2.38-2.182Zm.519,1.038L98.808,9.984v9.475q0,4.654-.732,6.073Q96.58,28.4,92.232,28.4q-3.753,0-5.645-1.877l.122.061.534.305a9.45,9.45,0,0,0,4.821,1.1q4.211,0,5.584-2.655.732-1.434.732-5.767V9.8l2.273-1.861Zm-10.3-.214-1.5,1.511V20.893l-.015,1.053.473,1.938a6.384,6.384,0,0,0,1.327,1.4l.031.137a3.192,3.192,0,0,1-1.77-1.511,7.287,7.287,0,0,1-.488-3.067V9.4L90.37,7.726Zm28.654-.824a6.2,6.2,0,0,0-2.243,1.648,6.429,6.429,0,0,0-.763,3.494V26.8h-2.579l-7.2-13.976v8.285l-.015.687.183,2.2a3.385,3.385,0,0,0,1.388,2.258l.122.107q-2.106-.7-2.106-4.5l.015-1.434V12.074l-.824-1.6v8.788a17.094,17.094,0,0,0,.549,5.478,3.681,3.681,0,0,0,2.579,1.892l1.327,1.419H101.4l-.244-.412H108.8l-.793-.839H100.9A4.305,4.305,0,0,0,103.37,25a8.791,8.791,0,0,0,.61-3.875V8.916l-2.029-1.694h7.72L107.5,8.672l7.385,14.4V21.244L108.557,8.916l2.136-1.449.29.29-1.892,1.282,5.8,11.382V12.486a9.42,9.42,0,0,0-.435-3.547,4.416,4.416,0,0,0-2.144-1.716Zm.534,1.129-.275.458A2.316,2.316,0,0,0,117.9,9.824a5.389,5.389,0,0,0-.42,2.495V28.049H114.2l-.2-.412h3.067V12.471a5.8,5.8,0,0,1,.557-3A3.047,3.047,0,0,1,119.772,8.351Zm14.953-1.129-1.587,1.8,2.5,6.652.61-.336-2.258-6.012,1.617-1.861.4.168-1.541,1.785,2.136,5.691q.183-.137.214-.168l.5-.427A4.393,4.393,0,0,0,137.9,14a10.576,10.576,0,0,0,1.221,3.113q-.442-.031-.641-.031a3.838,3.838,0,0,0-2.121.458l2.762,7.492,2.289,1.77H133.7l2.106-1.77-1.694-4.455a16.9,16.9,0,0,0-2.579,3.219l-.351-.092a19.428,19.428,0,0,1,2.685-3.341l.122-.153-.29-.671a13.565,13.565,0,0,0-3.006,3.509l-.275-.442q-.793-1.266-2.029-2.884l-.153-.183a11,11,0,0,0-1.175,4.242,3.643,3.643,0,0,0,.328,1.625,14.989,14.989,0,0,0,1.579,2.22l.336.427h-8.239l-.305-.412h7.766l-.259-.32a9.943,9.943,0,0,1-1.32-1.9,3.779,3.779,0,0,1-.313-1.594,13.712,13.712,0,0,1,1.266-4.638l-.671-.7q-.2.488-.5,1.434l-.5,1.556a6.918,6.918,0,0,0-.412,2.075,3.091,3.091,0,0,0,.29,1.419,7.607,7.607,0,0,0,1.221,1.541q.092.092.275.29H119.97a9.083,9.083,0,0,0,3.456-3.036,24.051,24.051,0,0,0,2.525-5.889l.061-.214a4.183,4.183,0,0,0-2.334-.839,10.956,10.956,0,0,0,1.3-2.609q.214.2.259.244l.687.641a7.809,7.809,0,0,0,.839.687l.275-.671-.183-.153q-.763-.671-1.282-1.083l-.137-.107.244-.336a11.676,11.676,0,0,1,1.556,1.236l2.075-5.706L127.69,7.222Zm-3.769,4.9-1.678,4.425a1.585,1.585,0,0,1,.153.183l.626.7a15.233,15.233,0,0,1,1.282,1.709l.153.229a13.594,13.594,0,0,1,1.556-1.633Zm-.687-1.77-2.426,6.408a21.213,21.213,0,0,1,2,2.35l.7.976q.015.015.153.2a1.218,1.218,0,0,0,.153-.168l.214-.259q.046-.061.168-.2a15.9,15.9,0,0,0-2.487-2.975l1.953-5.157Zm8.972,4.379a16.5,16.5,0,0,0,1.678,3.769q-.336-.046-.381-.046l-1.236-.107q-.839-.076-1.221-.076-.061,0-.305.015l2.548,6.759,3.4,3.006h-8.834l-.29-.412h8.1l-2.746-2.426-2.716-7.186a4.667,4.667,0,0,1,1.19-.137,13.655,13.655,0,0,1,1.831.137l-.183-.336a13.243,13.243,0,0,1-1.312-3.25Zm22.414-7.507a6.2,6.2,0,0,0-2.243,1.648,6.429,6.429,0,0,0-.763,3.494V26.8H156.07l-7.2-13.976v8.285l-.015.687.183,2.2a3.385,3.385,0,0,0,1.388,2.258l.122.107q-2.106-.7-2.106-4.5l.015-1.434V12.074l-.824-1.6v8.788a17.1,17.1,0,0,0,.549,5.478,3.681,3.681,0,0,0,2.579,1.892l1.327,1.419h-8.27l-.244-.412h7.644l-.793-.839h-7.11a4.305,4.305,0,0,0,2.472-1.8,8.791,8.791,0,0,0,.61-3.875V8.916l-2.029-1.694h7.72l-2.167,1.449,7.385,14.4V21.244L150.974,8.916l2.136-1.449.29.29-1.892,1.282,5.8,11.382V12.486a9.419,9.419,0,0,0-.435-3.547,4.416,4.416,0,0,0-2.144-1.716Zm.534,1.129-.275.458a2.316,2.316,0,0,0-1.594,1.015,5.389,5.389,0,0,0-.42,2.495V28.049h-3.28l-.2-.412h3.067V12.471a5.8,5.8,0,0,1,.557-3A3.047,3.047,0,0,1,162.188,8.351Zm1.282-1.129h6.012q4.409,0,6.53,1.694,3.158,2.5,3.158,7.842,0,5.539-2.762,8.01a7.27,7.27,0,0,1-2.8,1.572,14.961,14.961,0,0,1-4.112.458h-6.485l2.09-1.6V8.977ZM168.093,8.5V25.623h.839V9.511a9.6,9.6,0,0,1,1.449-.122,6.218,6.218,0,0,1,1.976.252,4.271,4.271,0,0,1,1.457.923,8.017,8.017,0,0,0-3.464-.763q-.4,0-1.038.061V25.623a9.044,9.044,0,0,0,2.594-.282,4.129,4.129,0,0,0,1.678-1.091q2.212-2.243,2.212-7.537,0-5.172-2.4-7.064A7.414,7.414,0,0,0,168.81,8.5Zm-4.135,19.545-.229-.412h5.584a13.575,13.575,0,0,0,6.256-1.144q4.593-2.441,4.593-9.445,0-4.684-2.06-6.958l-.61-.671q-.031-.031-.183-.214,3.235,2.029,3.235,7.766,0,6.027-3.2,8.88-2.456,2.2-8.026,2.2ZM196.014,7.222l-1.587,1.8,2.5,6.652.61-.336-2.258-6.012L196.9,7.467l.4.168-1.541,1.785,2.136,5.691q.183-.137.214-.168l.5-.427a4.393,4.393,0,0,0,.58-.519,10.575,10.575,0,0,0,1.221,3.113q-.442-.031-.641-.031a3.838,3.838,0,0,0-2.121.458l2.762,7.492L202.7,26.8h-7.705l2.106-1.77L195.4,20.573a16.9,16.9,0,0,0-2.579,3.219l-.351-.092a19.428,19.428,0,0,1,2.685-3.341l.122-.153-.29-.671a13.565,13.565,0,0,0-3.006,3.509l-.275-.442q-.793-1.266-2.029-2.884l-.153-.183a11,11,0,0,0-1.175,4.242,3.643,3.643,0,0,0,.328,1.625,14.989,14.989,0,0,0,1.579,2.22l.336.427h-8.239l-.305-.412h7.766l-.259-.32a9.943,9.943,0,0,1-1.32-1.9,3.779,3.779,0,0,1-.313-1.594,13.713,13.713,0,0,1,1.266-4.638l-.671-.7q-.2.488-.5,1.434l-.5,1.556a6.918,6.918,0,0,0-.412,2.075,3.091,3.091,0,0,0,.29,1.419,7.607,7.607,0,0,0,1.221,1.541q.092.092.275.29H181.26a9.083,9.083,0,0,0,3.456-3.036,24.051,24.051,0,0,0,2.525-5.889l.061-.214a4.183,4.183,0,0,0-2.334-.839,10.956,10.956,0,0,0,1.3-2.609q.214.2.259.244l.687.641a7.812,7.812,0,0,0,.839.687l.275-.671-.183-.153q-.763-.671-1.282-1.083l-.137-.107.244-.336a11.676,11.676,0,0,1,1.556,1.236L190.6,8.962l-1.617-1.739Zm-3.769,4.9-1.678,4.425a1.585,1.585,0,0,1,.153.183l.626.7a15.233,15.233,0,0,1,1.282,1.709l.153.229a13.593,13.593,0,0,1,1.556-1.633Zm-.687-1.77-2.426,6.408a21.213,21.213,0,0,1,2,2.35l.7.976q.015.015.153.2a1.218,1.218,0,0,0,.153-.168l.214-.259q.046-.061.168-.2a15.9,15.9,0,0,0-2.487-2.975l1.953-5.157Zm8.972,4.379a16.5,16.5,0,0,0,1.678,3.769q-.336-.046-.381-.046l-1.236-.107q-.839-.076-1.221-.076-.061,0-.305.015l2.548,6.759,3.4,3.006h-8.834l-.29-.412h8.1l-2.746-2.426-2.716-7.186a4.667,4.667,0,0,1,1.19-.137,13.655,13.655,0,0,1,1.831.137l-.183-.336a13.243,13.243,0,0,1-1.312-3.25Zm22.414-7.507A6.2,6.2,0,0,0,220.7,8.87a6.429,6.429,0,0,0-.763,3.494V26.8H217.36l-7.2-13.976v8.285l-.015.687.183,2.2a3.385,3.385,0,0,0,1.388,2.258l.122.107q-2.106-.7-2.106-4.5l.015-1.434V12.074l-.824-1.6v8.788a17.1,17.1,0,0,0,.549,5.478,3.681,3.681,0,0,0,2.579,1.892l1.327,1.419h-8.27l-.244-.412h7.644l-.793-.839H204.6a4.305,4.305,0,0,0,2.472-1.8,8.791,8.791,0,0,0,.61-3.875V8.916l-2.029-1.694h7.72l-2.167,1.449,7.385,14.4V21.244L212.264,8.916,214.4,7.467l.29.29L212.8,9.038l5.8,11.382V12.486a9.42,9.42,0,0,0-.435-3.547,4.416,4.416,0,0,0-2.144-1.716Zm.534,1.129-.275.458a2.316,2.316,0,0,0-1.594,1.015,5.389,5.389,0,0,0-.42,2.495V28.049h-3.28l-.2-.412h3.067V12.471a5.8,5.8,0,0,1,.557-3A3.047,3.047,0,0,1,223.478,8.351Zm14.953-1.129-1.587,1.8,2.5,6.652.61-.336L237.7,9.328l1.617-1.861.4.168-1.541,1.785,2.136,5.691q.183-.137.214-.168l.5-.427A4.393,4.393,0,0,0,241.6,14a10.575,10.575,0,0,0,1.221,3.113q-.442-.031-.641-.031a3.838,3.838,0,0,0-2.121.458l2.762,7.492,2.289,1.77h-7.705l2.106-1.77-1.694-4.455a16.9,16.9,0,0,0-2.579,3.219l-.351-.092a19.428,19.428,0,0,1,2.685-3.341l.122-.153-.29-.671a13.565,13.565,0,0,0-3.006,3.509l-.275-.442q-.793-1.266-2.029-2.884l-.153-.183a11,11,0,0,0-1.175,4.242A3.643,3.643,0,0,0,231.1,25.4a14.989,14.989,0,0,0,1.579,2.22l.336.427h-8.239l-.305-.412h7.766l-.259-.32a9.943,9.943,0,0,1-1.32-1.9,3.779,3.779,0,0,1-.313-1.594,13.713,13.713,0,0,1,1.266-4.638l-.671-.7q-.2.488-.5,1.434l-.5,1.556a6.918,6.918,0,0,0-.412,2.075,3.091,3.091,0,0,0,.29,1.419,7.607,7.607,0,0,0,1.221,1.541q.092.092.275.29h-7.629a9.083,9.083,0,0,0,3.456-3.036,24.051,24.051,0,0,0,2.525-5.889l.061-.214a4.183,4.183,0,0,0-2.334-.839,10.956,10.956,0,0,0,1.3-2.609q.214.2.259.244l.687.641a7.812,7.812,0,0,0,.839.687l.275-.671-.183-.153q-.763-.671-1.282-1.083l-.137-.107.244-.336a11.676,11.676,0,0,1,1.556,1.236l2.075-5.706L231.4,7.222Zm-3.769,4.9-1.678,4.425a1.585,1.585,0,0,1,.153.183l.626.7a15.233,15.233,0,0,1,1.282,1.709l.153.229a13.593,13.593,0,0,1,1.556-1.633Zm-.687-1.77-2.426,6.408a21.213,21.213,0,0,1,2,2.35l.7.976q.015.015.153.2a1.218,1.218,0,0,0,.153-.168l.214-.259q.046-.061.168-.2a15.9,15.9,0,0,0-2.487-2.975l1.953-5.157Zm8.972,4.379a16.5,16.5,0,0,0,1.678,3.769q-.336-.046-.381-.046l-1.236-.107q-.839-.076-1.221-.076-.061,0-.305.015l2.548,6.759,3.4,3.006H238.6l-.29-.412h8.1l-2.746-2.426-2.716-7.186a4.667,4.667,0,0,1,1.19-.137,13.655,13.655,0,0,1,1.831.137l-.183-.336a13.243,13.243,0,0,1-1.312-3.25ZM273.02,7.756l-2.853,5.615a6.1,6.1,0,0,0-1.5-3.662,4.311,4.311,0,0,0-3.242-1.266,5.175,5.175,0,0,0-4.463,2.228,10.582,10.582,0,0,0-1.594,6.24q0,8.834,7.232,8.834h2.456V17.826h-3.845a8.167,8.167,0,0,1-1.793-.137,2.463,2.463,0,0,1-1.045-.6v-.381a2.987,2.987,0,0,0,1.1.542,8.649,8.649,0,0,0,1.785.13h3.8V16.56h-4.928q-2.273,0-2.273-1.648a1.66,1.66,0,0,1,.381-1.1,1.155,1.155,0,0,1,.915-.458.964.964,0,0,1,.694.29.927.927,0,0,1,.3.687q0,.671-.488.778l-.366.076q-.183.046-.183.153,0,.2.5.2h10.589l-2.106,2.06V25.12l1.953,1.678H264.7a9.261,9.261,0,0,1-3.2-.473,7.912,7.912,0,0,1-2.563-1.678,9.7,9.7,0,0,1-3.067-7.522,9.933,9.933,0,0,1,2.9-7.6,8.452,8.452,0,0,1,6.012-2.4,13.769,13.769,0,0,1,3.57.549,13.407,13.407,0,0,0,2.716.565A4.4,4.4,0,0,0,273.02,7.756Zm.915.961-2.609,5.127-.366-.168,2.624-5.142Zm-4.882,2.319-.275-.2A5.64,5.64,0,0,0,265.6,9.6a4.157,4.157,0,0,0-3.006,1.236,5.274,5.274,0,0,0-1.32,2.4,15.3,15.3,0,0,0-.4,3.906,14.09,14.09,0,0,0,.61,4.715,6.911,6.911,0,0,0,2.243,2.945v.168A5.986,5.986,0,0,1,261.18,22a14.127,14.127,0,0,1-.778-5.2,9.955,9.955,0,0,1,1.358-5.622,4.347,4.347,0,0,1,3.814-2.006,4.174,4.174,0,0,1,3.479,1.77Zm5.8,5.371-1.572,1.572v7.156l2.533,2.914L269.755,28l-5.493.061a7.726,7.726,0,0,1-.793-.031,3.982,3.982,0,0,1-1.938-.839h.32a7.179,7.179,0,0,0,2.838.458l.763-.015h9.506L272.852,25.3V17.826l1.755-1.77Zm14.037-5.783-.259-.153a5.637,5.637,0,0,0-2.685-.809q-4.013,0-4.013,7.888,0,5.767,2.487,7.644l-.137.153a5.919,5.919,0,0,1-2.174-2.846,14.193,14.193,0,0,1-.648-4.768q0-8.468,4.455-8.468A3.373,3.373,0,0,1,288.888,10.625Zm-3.265-3.6a7.173,7.173,0,0,1,5.928,2.807,11.767,11.767,0,0,1,2.22,7.507,10.742,10.742,0,0,1-2.189,7.08,7.248,7.248,0,0,1-5.882,2.64,7.962,7.962,0,0,1-5.188-1.861q-3.341-2.746-3.341-8.132a11,11,0,0,1,2.289-7.324A7.645,7.645,0,0,1,285.623,7.024Zm0,1.312q-5.157,0-5.157,9.063,0,8.376,5.081,8.376a3.913,3.913,0,0,0,3.6-2.22,13.625,13.625,0,0,0,1.236-6.492q0-4.837-1.19-6.744A3.984,3.984,0,0,0,285.623,8.336ZM290.49,7.8a7.529,7.529,0,0,1,3.448,3.6,13.069,13.069,0,0,1,1.266,5.889,12.059,12.059,0,0,1-2.495,7.934,8.085,8.085,0,0,1-6.553,3.021,7.76,7.76,0,0,1-4.852-1.755v-.076a7.806,7.806,0,0,0,4.745,1.388,7.888,7.888,0,0,0,6.286-2.884,10.967,10.967,0,0,0,2.456-7.369,14.177,14.177,0,0,0-1.121-5.844A8.029,8.029,0,0,0,290.49,7.97Zm31.843-5.813a18.741,18.741,0,0,0-3.2,4.654,54.03,54.03,0,0,0-2.54,7.675l-2.64,9.612.305,1.19,1.877,1.678h-6.958l2-1.678-2.7-9.78-2.624,9.567,2.624,3.143h-7.8l-.305-.412h7.263L305.351,25l2.884-10.436-.5-1.816L304.6,24.174l.244.946,1.785,1.678H299.66l2.075-1.678L297.3,9.145l-2.289-1.922h7.461l-2.09,1.922,3.494,12.572.534-1.846-2.945-10.5,1.388-1.236.351.244-1.266,1.129,2.67,9.6,3.265-11.886H309.3L313.27,21.6l.488-1.724L310.249,7.222h.427l3.28,11.886,1.434-5.157a31.676,31.676,0,0,0,1.343-6.317,2.871,2.871,0,0,0-1.526-2.563,29.826,29.826,0,0,0,3.83-1.541,17.628,17.628,0,0,0,3.052-1.755Zm.915,1.16A18.088,18.088,0,0,0,320.235,7.7a45.907,45.907,0,0,0-2.418,7.08l-2.7,9.856,2.929,3.418h-7.827l-.351-.412h7.247l-2.472-2.853,2.807-10.223a46.444,46.444,0,0,1,2.4-7A20.606,20.606,0,0,1,322.9,2.889Zm-1.541,4.074h6.012q4.41,0,6.53,1.694,3.158,2.5,3.158,7.842,0,5.539-2.762,8.01a7.27,7.27,0,0,1-2.8,1.572,14.961,14.961,0,0,1-4.112.458H321.25l2.09-1.6V8.977ZM326.33,8.5V25.623h.839V9.511a9.6,9.6,0,0,1,1.449-.122,6.218,6.218,0,0,1,1.976.252,4.271,4.271,0,0,1,1.457.923,8.017,8.017,0,0,0-3.464-.763q-.4,0-1.038.061V25.623a9.044,9.044,0,0,0,2.594-.282,4.129,4.129,0,0,0,1.678-1.091q2.212-2.243,2.212-7.537,0-5.172-2.4-7.064A7.414,7.414,0,0,0,327.048,8.5ZM322.2,28.049l-.229-.412h5.584a13.575,13.575,0,0,0,6.256-1.144q4.593-2.441,4.593-9.445,0-4.684-2.06-6.958l-.61-.671q-.031-.031-.183-.214,3.235,2.029,3.235,7.766,0,6.027-3.2,8.88-2.456,2.2-8.026,2.2ZM354.252,7.222l-1.587,1.8,2.5,6.652.61-.336L353.52,9.328l1.617-1.861.4.168-1.541,1.785,2.136,5.691q.183-.137.214-.168l.5-.427a4.393,4.393,0,0,0,.58-.519,10.575,10.575,0,0,0,1.221,3.113q-.442-.031-.641-.031a3.838,3.838,0,0,0-2.121.458l2.762,7.492,2.289,1.77H353.23l2.106-1.77-1.694-4.455a16.9,16.9,0,0,0-2.579,3.219l-.351-.092a19.428,19.428,0,0,1,2.685-3.341l.122-.153-.29-.671a13.565,13.565,0,0,0-3.006,3.509l-.275-.442q-.793-1.266-2.029-2.884l-.153-.183a11,11,0,0,0-1.175,4.242,3.643,3.643,0,0,0,.328,1.625,14.99,14.99,0,0,0,1.579,2.22l.336.427H340.6l-.305-.412h7.766l-.259-.32a9.944,9.944,0,0,1-1.32-1.9,3.779,3.779,0,0,1-.313-1.594,13.712,13.712,0,0,1,1.266-4.638l-.671-.7q-.2.488-.5,1.434l-.5,1.556a6.918,6.918,0,0,0-.412,2.075,3.091,3.091,0,0,0,.29,1.419,7.607,7.607,0,0,0,1.221,1.541q.092.092.275.29H339.5a9.084,9.084,0,0,0,3.456-3.036,24.052,24.052,0,0,0,2.525-5.889l.061-.214a4.183,4.183,0,0,0-2.334-.839,10.955,10.955,0,0,0,1.3-2.609q.214.2.259.244l.687.641a7.809,7.809,0,0,0,.839.687l.275-.671-.183-.153q-.763-.671-1.282-1.083l-.137-.107.244-.336a11.676,11.676,0,0,1,1.556,1.236l2.075-5.706-1.617-1.739Zm-3.769,4.9-1.678,4.425a1.586,1.586,0,0,1,.153.183l.626.7a15.233,15.233,0,0,1,1.282,1.709l.153.229a13.593,13.593,0,0,1,1.556-1.633Zm-.687-1.77-2.426,6.408a21.211,21.211,0,0,1,2,2.35l.7.976q.015.015.153.2a1.22,1.22,0,0,0,.153-.168l.214-.259q.046-.061.168-.2a15.9,15.9,0,0,0-2.487-2.975l1.953-5.157Zm8.972,4.379a16.5,16.5,0,0,0,1.678,3.769q-.336-.046-.381-.046l-1.236-.107q-.839-.076-1.221-.076-.061,0-.305.015l2.548,6.759,3.4,3.006H354.42l-.29-.412h8.1l-2.746-2.426-2.716-7.186a4.667,4.667,0,0,1,1.19-.137,13.655,13.655,0,0,1,1.831.137l-.183-.336a13.242,13.242,0,0,1-1.312-3.25ZM371.982,9.3a14.471,14.471,0,0,1,8.148-2.4,9.045,9.045,0,0,1,5.355,1.472,4.483,4.483,0,0,1,2.075,3.807q0,3.113-3.6,4.165v.168q.366.092.885.244a4.488,4.488,0,0,0,3.631-4.562,5.146,5.146,0,0,0-1.785-3.845V8.26l.168.137a4.777,4.777,0,0,1,2,3.952q0,3.326-3.448,4.638a5.4,5.4,0,0,1,2.327,1.953,5.083,5.083,0,0,1,.832,2.853,4.487,4.487,0,0,1-1.648,3.639,6.669,6.669,0,0,1-4.394,1.366H371.6l2.106-1.8V18.391a14.257,14.257,0,0,0-2.106.183l-.122-.442q1.358-.137,2.228-.137v-.809h-.381q-.854,0-2.151.122l.671-1.465.244.015q.6.046.9.046a4.353,4.353,0,0,1,.717.046V10.213Zm4.776-.229V15.95q.168-.015.229-.015l.275.015h.259V9.709a6.054,6.054,0,0,1,2.563-.61,4.258,4.258,0,0,1,2.266.519,3.971,3.971,0,0,1,1.411,1.77l-.427-.244a3.689,3.689,0,0,0-3.265-1.724,3.6,3.6,0,0,0-2.136.671V15.95h.641a7.8,7.8,0,0,0,4.341-.969,3.34,3.34,0,0,0,1.427-2.968,3.644,3.644,0,0,0-1.182-2.83,4.436,4.436,0,0,0-3.1-1.076A6.328,6.328,0,0,0,376.757,9.069Zm0,8.132v8.407h.763V18.116q1.083-.076,1.556-.076a10.317,10.317,0,0,1,3.669.473,3.593,3.593,0,0,1,1.808,1.8h-.183a3.875,3.875,0,0,0-1.877-1.457,10.351,10.351,0,0,0-3.311-.4l-1.251.031v7.125h.488l2.212-.076q4.3-.305,4.3-4.181a3.612,3.612,0,0,0-1.419-3.319q-1.419-.893-5.31-.893Q377.825,17.14,376.757,17.2Zm11.428,1.068a4.563,4.563,0,0,1,1.633,3.845A5.61,5.61,0,0,1,388,26.4a7.377,7.377,0,0,1-5.2,1.648H372.424l-.259-.412h9.628A11.63,11.63,0,0,0,386.324,27a5.068,5.068,0,0,0,3.082-4.989,5.361,5.361,0,0,0-1.4-3.6ZM413.925,7.39a10.178,10.178,0,0,0-1.266,2.228,30.379,30.379,0,0,1-1.236,2.807l-.076.092q-.061-.168-.092-.259a13.5,13.5,0,0,0-.7-1.907,3.575,3.575,0,0,0-.824-1.022,4.619,4.619,0,0,0-3.158-1.236A4.084,4.084,0,0,0,403.855,9a2.853,2.853,0,0,0-1.083,2.281q0,2.563,3.86,3.494l2.579.626q5.508,1.327,5.508,5.813a5.439,5.439,0,0,1-1.884,4.2,6.7,6.7,0,0,1-4.661,1.7,16.3,16.3,0,0,1-3.891-.534l-1.785-.442a7.98,7.98,0,0,0-1.785-.259,3.736,3.736,0,0,0-1.922.6l-.122-.214a20.483,20.483,0,0,0,2.655-5.432l.275.076a5.583,5.583,0,0,0,1.922,3.723,6.362,6.362,0,0,0,4.2,1.327,5.125,5.125,0,0,0,3.25-.946,3.07,3.07,0,0,0,1.205-2.548,3.627,3.627,0,0,0-1.678-3.052,14.471,14.471,0,0,0-4.943-1.587,7.933,7.933,0,0,1-4.181-1.877,4.962,4.962,0,0,1-1.3-3.647A4.937,4.937,0,0,1,401.8,8.39a6.632,6.632,0,0,1,4.509-1.5,16.318,16.318,0,0,1,4.165.641,7,7,0,0,0,1.648.305,3.275,3.275,0,0,0,1.633-.519Zm.946.641-.137.229a21.844,21.844,0,0,0-1.068,2.014q-1.068,2.243-1.205,2.5l-.076.107-.366-.153.061-.137q.442-1.007,1.282-2.624L414.4,7.955l.076-.122Zm-4.455,3.036a4.92,4.92,0,0,0-3.6-1.785,2.8,2.8,0,0,0-1.922.671,2.176,2.176,0,0,0-.763,1.709,3.185,3.185,0,0,0,1.541,2.319l.122.076-.076.122a2.845,2.845,0,0,1-2.014-2.609,2.455,2.455,0,0,1,.854-1.938,3.26,3.26,0,0,1,2.228-.748,4.584,4.584,0,0,1,2.3.557,3.355,3.355,0,0,1,1.442,1.564Zm3.509,6.057a5.1,5.1,0,0,1,2.075,4.3,6.378,6.378,0,0,1-2.258,4.936,7.942,7.942,0,0,1-5.493,2.022,12.152,12.152,0,0,1-2.975-.336l-2.441-.6A7.53,7.53,0,0,0,401,27.24a3.659,3.659,0,0,0-1.6.351l-.183-.442a3.823,3.823,0,0,1,1.617-.366,9.3,9.3,0,0,1,2.09.275l2.35.565a12.691,12.691,0,0,0,2.96.336,7.456,7.456,0,0,0,5.2-1.945,6.128,6.128,0,0,0,2.144-4.707,5.786,5.786,0,0,0-1.648-4.089Zm-10.863,4.394a5.207,5.207,0,0,0,3.021,3.891v.122a4.667,4.667,0,0,1-3.433-3.936Zm-1.907-4.943.519.29q.5.9,2.945,1.5l2.456.61a16.8,16.8,0,0,1,3.334,1.076,2.526,2.526,0,0,1,1.182,1.366l-.107.061A4.409,4.409,0,0,0,410,20.313a19.289,19.289,0,0,0-3.074-.9,23.975,23.975,0,0,1-4.425-1.32A2.262,2.262,0,0,1,401.154,16.575Z" transform="translate(0.703 -1.775)" fill="url(#radial-gradient)"/>
</svg>
